<svg xmlns:dc="http://purl.org/dc/elements/1.1/" xmlns:cc="http://creativecommons.org/ns#" xmlns:rdf="http://www.w3.org/1999/02/22-rdf-syntax-ns#" xmlns:svg="http://www.w3.org/2000/svg" xmlns="http://www.w3.org/2000/svg" id="svg59" xml:space="preserve" viewBox="0 0 1024 768" y="0px" x="0px"><metadata></metadata><style id="style2">#c1 {	transform: scale(0);	opacity: 0;	transform-origin: 50% 50%;	animation: pulse 4s cubic-bezier(.5,.5,0,1) infinite;	}#c2 {	transform: scale(0);	opacity: 0;	transform-origin: 50% 50%;	animation: pulse 4s 0.75s cubic-bezier(.5,.5,0,1) infinite;}#c3 {	transform: scale(0);	opacity: 0;	transform-origin: 50% 50%;	animation: pulse 4s 1.5s cubic-bezier(.5,.5,0,1) infinite;}@keyframes pulse {		12% {		opacity: 0.3;	}		50% {		transform: scale(1);	}		100% {		transform: scale(1);	}	}</style><defs id="defs6"><clipPath id="clip-path"><rect y="0" x="0" height="100" width="1024" id="clip"></rect></clipPath></defs><circle fill="none" stroke-width="10" stroke="#2e7b7b" r="370" cy="384" cx="512" id="c1"></circle><circle fill="none" stroke-width="10" stroke="#97a44a" r="370" cy="384" cx="512" id="c2"></circle><circle fill="none" stroke-width="10" stroke="#ffcc19" r="370" cy="384" cx="512" id="c3"></circle><g id="fade"><g style="stroke-width:0;stroke-miterlimit:2" transform="matrix(0.98958,0,0,0.98958,5.3374,4.003)" stroke-miterlimit="2" id="logo-group"><path d="m 392.86,437.51 h -8.832 l -1.872,4.344 h -2.016 l 7.44,-16.92 h 1.704 l 7.44,16.92 h -1.992 z m -0.69599,-1.632 -3.72,-8.664 -3.72,8.664 z" style="font-variant-ligatures:none;fill:#332f4a" id="path586"></path><path d="m 408.58,429.88 q 4.2,0 4.2,4.632 v 7.344 h -1.944 v -7.224 q 0,-1.632 -0.648,-2.376 -0.62401,-0.744 -2.016,-0.744 -1.608,0 -2.568,0.984 -0.96,0.984 -0.96,2.664 v 6.696 H 402.7 v -11.688 h 1.92 v 1.92 q 0.576,-1.08 1.608,-1.632 1.032,-0.576 2.352,-0.576 z" style="font-variant-ligatures:none;fill:#332f4a" id="path588"></path><path d="m 424.84,429.88 q 2.232,0 3.312,1.152 1.104,1.128 1.104,3.456 v 7.368 h -1.896 v -1.992 q -0.456,1.032 -1.392,1.608 -0.936,0.552 -2.16,0.552 -1.128,0 -2.088,-0.456 -0.936,-0.456 -1.488,-1.272 -0.552,-0.816 -0.552,-1.8 0,-1.32 0.672,-2.04 0.672,-0.744 2.208,-1.056 1.536,-0.336 4.272,-0.336 h 0.528 v -0.792 q 0,-1.464 -0.6,-2.112 -0.6,-0.672 -1.944,-0.672 -2.016,0 -4.008,1.248 l -0.648,-1.416 q 0.912,-0.648 2.184,-1.032 1.296,-0.408 2.496,-0.408 z m -0.768,10.608 q 1.44,0 2.352,-0.96 0.936,-0.984 0.936,-2.52 v -0.696 h -0.432 q -2.112,0 -3.216,0.192 -1.104,0.168 -1.584,0.6 -0.456,0.408 -0.456,1.224 0,0.936 0.672,1.56 0.696,0.6 1.728,0.6 z m 0.12,-11.856 2.376,-4.848 h 2.232 l -3.264,4.848 z" style="font-variant-ligatures:none;fill:#332f4a" id="path590"></path><path d="m 436.54,424.93 h 1.944 v 16.92 h -1.944 z" style="font-variant-ligatures:none;fill:#332f4a" id="path592"></path><path d="m 445.87,430.16 h 1.944 v 11.688 h -1.944 z m 2.16,-5.064 v 2.184 h -2.352 v -2.18 z" style="font-variant-ligatures:none;fill:#332f4a" id="path594"></path><path d="m 459.16,442.02 q -2.952,0 -4.68,-1.512 l 0.648,-1.44 q 0.936,0.744 1.896,1.08 0.984,0.312 2.208,0.312 1.296,0 1.968,-0.432 0.696,-0.456 0.696,-1.296 0,-0.696 -0.456,-1.104 -0.456,-0.408 -1.512,-0.648 l -1.968,-0.456 q -1.488,-0.336 -2.28,-1.152 -0.792,-0.816 -0.792,-2.016 0,-1.56 1.224,-2.52 1.224,-0.96 3.264,-0.96 1.224,0 2.328,0.408 1.104,0.384 1.848,1.128 l -0.648,1.416 q -1.608,-1.368 -3.528,-1.368 -1.224,0 -1.92,0.48 -0.672,0.456 -0.672,1.296 0,0.696 0.408,1.128 0.432,0.408 1.368,0.624 l 1.992,0.48 q 1.632,0.384 2.424,1.176 0.792,0.768 0.792,2.016 0,1.536 -1.248,2.448 -1.224,0.912 -3.36,0.912 z" style="font-variant-ligatures:none;fill:#332f4a" id="path596"></path><path d="m 470.48,430.16 h 1.944 v 11.688 h -1.944 z m 2.16,-5.064 v 2.184 h -2.352 v -2.18 z" style="font-variant-ligatures:none;fill:#332f4a" id="path598"></path><path d="m 483.77,442.02 q -2.952,0 -4.68,-1.512 l 0.648,-1.44 q 0.936,0.744 1.896,1.08 0.984,0.312 2.208,0.312 1.296,0 1.968,-0.432 0.696,-0.456 0.696,-1.296 0,-0.696 -0.456,-1.104 -0.456,-0.408 -1.512,-0.648 l -1.968,-0.456 q -1.488,-0.336 -2.28,-1.152 -0.792,-0.816 -0.792,-2.016 0,-1.56 1.224,-2.52 1.224,-0.96 3.264,-0.96 1.224,0 2.328,0.408 1.104,0.384 1.848,1.128 l -0.648,1.416 q -1.608,-1.368 -3.528,-1.368 -1.224,0 -1.92,0.48 -0.672,0.456 -0.672,1.296 0,0.696 0.408,1.128 0.432,0.408 1.368,0.624 l 1.992,0.48 q 1.632,0.384 2.424,1.176 0.792,0.768 0.792,2.016 0,1.536 -1.248,2.448 -1.224,0.912 -3.36,0.912 z" style="font-variant-ligatures:none;fill:#332f4a" id="path600"></path><path d="m 497.11,439.4 v 1.728 q 0,1.008 -0.33599,1.824 -0.312,0.84 -1.104,1.632 l -0.912,-0.696 q 0.936,-1.032 1.056,-2.04 h -1.152 V 439.4 Z" style="font-variant-ligatures:none;fill:#332f4a" id="path602"></path><path d="m 510.66,424.93 h 10.704 v 1.632 h -8.76 v 5.88 h 8.28 v 1.632 h -8.28 v 6.144 h 8.76 v 1.632 H 510.66 Z" style="font-variant-ligatures:none;fill:#332f4a" id="path604"></path><path d="m 532.05,442.02 q -2.952,0 -4.68,-1.512 l 0.648,-1.44 q 0.936,0.744 1.896,1.08 0.984,0.312 2.208,0.312 1.296,0 1.968,-0.432 0.696,-0.456 0.696,-1.296 0,-0.696 -0.456,-1.104 -0.456,-0.408 -1.512,-0.648 l -1.968,-0.456 q -1.488,-0.336 -2.28,-1.152 -0.792,-0.816 -0.792,-2.016 0,-1.56 1.224,-2.52 1.224,-0.96 3.264,-0.96 1.224,0 2.328,0.408 1.104,0.384 1.848,1.128 l -0.648,1.416 q -1.608,-1.368 -3.528,-1.368 -1.224,0 -1.92,0.48 -0.672,0.456 -0.672,1.296 0,0.696 0.408,1.128 0.432,0.408 1.368,0.624 l 1.992,0.48 q 1.632,0.384 2.424,1.176 0.792,0.768 0.792,2.016 0,1.536 -1.248,2.448 -1.224,0.912 -3.36,0.912 z" style="font-variant-ligatures:none;fill:#332f4a" id="path606"></path><path d="m 548.37,440.46 q 0.528,0 1.056,-0.072 l -0.096,1.536 q -0.55199,0.096 -1.2,0.096 -2.112,0 -3.192,-1.104 -1.056,-1.104 -1.056,-3.072 v -6.15 h -2.28 v -1.536 h 2.28 v -3.552 h 1.944 v 3.552 h 3.312 v 1.536 h -3.312 v 6 q 0,2.76 2.544,2.76 z" style="font-variant-ligatures:none;fill:#332f4a" id="path608"></path><path d="m 559.89,429.88 q 2.232,0 3.312,1.152 1.104,1.128 1.104,3.456 v 7.368 h -1.896 v -1.992 q -0.456,1.032 -1.392,1.608 -0.936,0.552 -2.16,0.552 -1.128,0 -2.088,-0.456 -0.936,-0.456 -1.488,-1.272 -0.552,-0.816 -0.552,-1.8 0,-1.32 0.672,-2.04 0.67201,-0.744 2.208,-1.056 1.536,-0.336 4.272,-0.336 h 0.52801 v -0.792 q 0,-1.464 -0.60001,-2.112 -0.6,-0.672 -1.944,-0.672 -2.016,0 -4.008,1.248 l -0.64799,-1.416 q 0.912,-0.648 2.184,-1.032 1.296,-0.408 2.496,-0.408 z m -0.768,10.608 q 1.44,0 2.352,-0.96 0.93601,-0.984 0.93601,-2.52 v -0.696 H 561.978 q -2.112,0 -3.216,0.192 -1.104,0.168 -1.584,0.6 -0.456,0.408 -0.456,1.224 0,0.936 0.672,1.56 0.696,0.6 1.728,0.6 z" style="font-variant-ligatures:none;fill:#332f4a" id="path610"></path><path d="m 581.96,424.93 v 16.92 h -1.944 v -2.136 q -0.528,1.104 -1.56,1.704 -1.008,0.6 -2.376,0.6 -1.536,0 -2.712,-0.768 -1.176,-0.768 -1.824,-2.136 -0.648,-1.392 -0.648,-3.216 0,-1.8 0.648,-3.168 0.648,-1.368 1.824,-2.112 1.176,-0.744 2.712,-0.744 1.368,0 2.376,0.6 1.032,0.6 1.56,1.704 v -7.248 z m -5.496,15.48 q 1.704,0 2.616,-1.152 0.936,-1.176 0.936,-3.312 0,-2.136 -0.936,-3.288 -0.912,-1.152 -2.616,-1.152 -1.704,0 -2.664,1.152 -0.936,1.152 -0.936,3.24 0,2.136 0.936,3.336 0.96,1.176 2.664,1.176 z" style="font-variant-ligatures:none;fill:#332f4a" id="path612"></path><path d="m 589.31,430.16 h 1.944 v 11.688 h -1.944 z m 0.312,-1.536 2.376,-4.848 h 2.232 l -3.264,4.848 z" style="font-variant-ligatures:none;fill:#332f4a" id="path614"></path><path d="m 602.6,442.02 q -2.952,0 -4.68,-1.512 l 0.64799,-1.44 q 0.936,0.744 1.896,1.08 0.984,0.312 2.208,0.312 1.296,0 1.968,-0.432 0.69599,-0.456 0.69599,-1.296 0,-0.696 -0.45599,-1.104 -0.45601,-0.408 -1.512,-0.648 l -1.968,-0.456 q -1.488,-0.336 -2.28,-1.152 -0.792,-0.816 -0.792,-2.016 0,-1.56 1.224,-2.52 1.224,-0.96 3.264,-0.96 1.224,0 2.328,0.408 1.104,0.384 1.848,1.128 l -0.64799,1.416 q -1.608,-1.368 -3.528,-1.368 -1.224,0 -1.92,0.48 -0.672,0.456 -0.672,1.296 0,0.696 0.408,1.128 0.432,0.408 1.368,0.624 l 1.992,0.48 q 1.632,0.384 2.424,1.176 0.792,0.768 0.792,2.016 0,1.536 -1.248,2.448 -1.224,0.912 -3.36,0.912 z" style="font-variant-ligatures:none;fill:#332f4a" id="path616"></path><path d="m 618.91,440.46 q 0.528,0 1.056,-0.072 l -0.096,1.536 q -0.552,0.096 -1.2,0.096 -2.112,0 -3.192,-1.104 -1.056,-1.104 -1.056,-3.072 v -6.15 h -2.28 v -1.536 h 2.28 v -3.552 h 1.944 v 3.552 h 3.312 v 1.536 h -3.312 v 6 q 0,2.76 2.544,2.76 z" style="font-variant-ligatures:none;fill:#332f4a" id="path618"></path><path d="m 625.68,430.16 h 1.944 v 11.688 h -1.944 z m 2.16,-5.064 v 2.184 h -2.352 v -2.18 z" style="font-variant-ligatures:none;fill:#332f4a" id="path620"></path><path d="m 639.95,442.02 q -1.728,0 -3,-0.744 -1.272,-0.744 -1.968,-2.088 -0.672,-1.368 -0.672,-3.192 0,-1.824 0.696,-3.192 0.72,-1.392 1.992,-2.16 1.296,-0.768 3.024,-0.768 1.176,0 2.304,0.432 1.128,0.408 1.824,1.104 l -0.648,1.44 q -1.656,-1.344 -3.36,-1.344 -1.8,0 -2.808,1.176 -1.008,1.176 -1.008,3.312 0,2.112 1.008,3.264 1.008,1.152 2.808,1.152 1.704,0 3.36,-1.344 l 0.648,1.44 q -0.744,0.696 -1.872,1.104 -1.128,0.408 -2.328,0.408 z" style="font-variant-ligatures:none;fill:#332f4a" id="path622"></path><path d="m 655,429.88 q 2.232,0 3.312,1.152 1.104,1.128 1.104,3.456 v 7.368 h -1.896 v -1.992 q -0.456,1.032 -1.392,1.608 -0.936,0.552 -2.16,0.552 -1.128,0 -2.088,-0.456 -0.936,-0.456 -1.488,-1.272 -0.552,-0.816 -0.552,-1.8 0,-1.32 0.672,-2.04 0.672,-0.744 2.208,-1.056 1.536,-0.336 4.272,-0.336 h 0.528 v -0.792 q 0,-1.464 -0.6,-2.112 -0.6,-0.672 -1.944,-0.672 -2.016,0 -4.008,1.248 l -0.648,-1.416 q 0.912,-0.648 2.184,-1.032 1.296,-0.408 2.496,-0.408 z m -0.768,10.608 q 1.44,0 2.352,-0.96 0.936,-0.984 0.936,-2.52 v -0.696 h -0.432 q -2.112,0 -3.216,0.192 -1.104,0.168 -1.584,0.6 -0.456,0.408 -0.456,1.224 0,0.936 0.672,1.56 0.696,0.6 1.728,0.6 z" style="font-variant-ligatures:none;fill:#332f4a" id="path624"></path><path d="m 683.21,430.19 -6.912,15.984 h -1.992 l 1.968,-4.464 -4.944,-11.52 h 2.064 l 3.912,9.552 3.96,-9.552 z" style="font-variant-ligatures:none;fill:#332f4a" id="path626"></path><path d="m 702.66,442.04 q -2.4,0 -4.176,-1.032 -1.776,-1.056 -2.736,-3 -0.936,-1.968 -0.936,-4.632 0,-2.664 0.936,-4.608 0.96,-1.944 2.736,-2.976 1.776,-1.056 4.176,-1.056 1.752,0 3.216,0.552 1.464,0.528 2.544,1.584 l -0.744,1.512 q -1.224,-1.032 -2.4,-1.488 -1.176,-0.456 -2.592,-0.456 -2.784,0 -4.32,1.824 -1.512,1.8 -1.512,5.112 0,3.336 1.512,5.16 1.536,1.8 4.32,1.8 1.416,0 2.592,-0.456 1.176,-0.456 2.4,-1.488 l 0.744,1.512 q -1.08,1.056 -2.544,1.608 -1.464,0.528 -3.216,0.528 z" style="font-variant-ligatures:none;fill:#332f4a" id="path628"></path><path d="m 715.17,430.16 h 1.944 v 11.688 h -1.944 z m 2.16,-5.064 v 2.184 h -2.352 v -2.18 z" style="font-variant-ligatures:none;fill:#332f4a" id="path630"></path><path d="m 734.29,436.31 h -8.544 q 0.096,2.04 1.104,3.096 1.008,1.032 2.856,1.032 2.04,0 3.744,-1.392 l 0.648,1.416 q -0.768,0.72 -1.968,1.152 -1.2,0.408 -2.448,0.408 -2.736,0 -4.32,-1.608 -1.56,-1.608 -1.56,-4.44 0,-1.8 0.696,-3.168 0.696,-1.392 1.944,-2.16 1.272,-0.768 2.88,-0.768 2.328,0 3.648,1.536 1.32,1.512 1.32,4.176 z m -4.944,-4.92 q -1.536,0 -2.472,0.96 -0.912,0.96 -1.08,2.712 h 6.792 q -0.048,-1.776 -0.888,-2.712 -0.84,-0.96 -2.352,-0.96 z" style="font-variant-ligatures:none;fill:#332f4a" id="path632"></path><path d="m 746.78,429.88 q 4.2,0 4.2,4.632 v 7.344 h -1.944 v -7.224 q 0,-1.632 -0.648,-2.376 -0.624,-0.744 -2.016,-0.744 -1.608,0 -2.568,0.984 -0.96,0.984 -0.96,2.664 v 6.696 H 740.9 v -11.688 h 1.92 v 1.92 q 0.576,-1.08 1.608,-1.632 1.032,-0.576 2.352,-0.576 z" style="font-variant-ligatures:none;fill:#332f4a" id="path634"></path><path d="m 763.24,442.02 q -1.728,0 -3,-0.744 -1.272,-0.744 -1.968,-2.088 -0.672,-1.368 -0.672,-3.192 0,-1.824 0.696,-3.192 0.72,-1.392 1.992,-2.16 1.296,-0.768 3.024,-0.768 1.176,0 2.304,0.432 1.128,0.408 1.824,1.104 l -0.648,1.44 q -1.656,-1.344 -3.36,-1.344 -1.8,0 -2.808,1.176 -1.008,1.176 -1.008,3.312 0,2.112 1.008,3.264 1.008,1.152 2.808,1.152 1.704,0 3.36,-1.344 l 0.648,1.44 q -0.74399,0.696 -1.872,1.104 -1.12801,0.408 -2.328,0.408 z" style="font-variant-ligatures:none;fill:#332f4a" id="path636"></path><path d="m 773.53,430.16 h 1.944 v 11.688 h -1.944 z m 2.16,-5.064 v 2.184 h -2.352 v -2.18 z" style="font-variant-ligatures:none;fill:#332f4a" id="path638"></path><path d="m 787.61,429.88 q 2.232,0 3.312,1.152 1.104,1.128 1.104,3.456 v 7.368 h -1.896 v -1.992 q -0.456,1.032 -1.392,1.608 -0.93599,0.552 -2.16,0.552 -1.128,0 -2.088,-0.456 -0.93601,-0.456 -1.488,-1.272 -0.552,-0.816 -0.552,-1.8 0,-1.32 0.672,-2.04 0.67201,-0.744 2.208,-1.056 1.536,-0.336 4.272,-0.336 h 0.528 v -0.792 q 0,-1.464 -0.6,-2.112 -0.6,-0.672 -1.944,-0.672 -2.016,0 -4.008,1.248 l -0.648,-1.416 q 0.912,-0.648 2.184,-1.032 1.296,-0.408 2.496,-0.408 z m -0.768,10.608 q 1.44,0 2.352,-0.96 0.93601,-0.984 0.93601,-2.52 v -0.696 H 789.698 q -2.112,0 -3.216,0.192 -1.104,0.168 -1.584,0.6 -0.456,0.408 -0.456,1.224 0,0.936 0.672,1.56 0.696,0.6 1.728,0.6 z" style="font-variant-ligatures:none;fill:#332f4a" id="path640"></path><path d="m 815.86,424.93 v 16.92 h -1.944 v -2.136 q -0.528,1.104 -1.56,1.704 -1.008,0.6 -2.376,0.6 -1.536,0 -2.712,-0.768 -1.176,-0.768 -1.824,-2.136 -0.648,-1.392 -0.648,-3.216 0,-1.8 0.648,-3.168 0.648,-1.368 1.824,-2.112 1.176,-0.744 2.712,-0.744 1.368,0 2.376,0.6 1.032,0.6 1.56,1.704 v -7.248 z m -5.496,15.48 q 1.704,0 2.616,-1.152 0.936,-1.176 0.936,-3.312 0,-2.136 -0.936,-3.288 -0.912,-1.152 -2.616,-1.152 -1.704,0 -2.664,1.152 -0.936,1.152 -0.936,3.24 0,2.136 0.936,3.336 0.96,1.176 2.664,1.176 z" style="font-variant-ligatures:none;fill:#332f4a" id="path642"></path><path d="m 833.01,436.31 h -8.544 q 0.096,2.04 1.104,3.096 1.008,1.032 2.856,1.032 2.04,0 3.744,-1.392 l 0.648,1.416 q -0.768,0.72 -1.968,1.152 -1.2,0.408 -2.448,0.408 -2.736,0 -4.32,-1.608 -1.56,-1.608 -1.56,-4.44 0,-1.8 0.696,-3.168 0.696,-1.392 1.944,-2.16 1.272,-0.768 2.88,-0.768 2.328,0 3.648,1.536 1.32,1.512 1.32,4.176 z m -4.944,-4.92 q -1.536,0 -2.472,0.96 -0.912,0.96 -1.08,2.712 h 6.792 q -0.048,-1.776 -0.888,-2.712 -0.84,-0.96 -2.352,-0.96 z" style="font-variant-ligatures:none;fill:#332f4a" id="path644"></path><path d="m 846.1,424.93 h 5.688 q 4.056,0 6.264,2.208 2.232,2.184 2.232,6.24 0,4.056 -2.232,6.264 -2.208,2.208 -6.264,2.208 H 846.1 Z m 5.568,15.24 q 6.576,0 6.576,-6.792 0,-6.768 -6.576,-6.768 h -3.6 v 13.56 z" style="font-variant-ligatures:none;fill:#332f4a" id="path646"></path><path d="m 872.03,429.88 q 2.232,0 3.312,1.152 1.104,1.128 1.104,3.456 v 7.368 h -1.896 v -1.992 q -0.456,1.032 -1.392,1.608 -0.936,0.552 -2.16,0.552 -1.128,0 -2.088,-0.456 -0.936,-0.456 -1.488,-1.272 -0.552,-0.816 -0.552,-1.8 0,-1.32 0.672,-2.04 0.672,-0.744 2.208,-1.056 1.536,-0.336 4.272,-0.336 h 0.528 v -0.792 q 0,-1.464 -0.6,-2.112 -0.6,-0.672 -1.944,-0.672 -2.016,0 -4.008,1.248 l -0.648,-1.416 q 0.912,-0.648 2.184,-1.032 1.296,-0.408 2.496,-0.408 z m -0.768,10.608 q 1.44,0 2.352,-0.96 0.936,-0.984 0.936,-2.52 v -0.696 h -0.432 q -2.112,0 -3.216,0.192 -1.104,0.168 -1.584,0.6 -0.456,0.408 -0.456,1.224 0,0.936 0.672,1.56 0.696,0.6 1.728,0.6 z" style="font-variant-ligatures:none;fill:#332f4a" id="path648"></path><path d="m 888.87,440.46 q 0.52799,0 1.056,-0.072 l -0.096,1.536 q -0.55199,0.096 -1.2,0.096 -2.112,0 -3.192,-1.104 -1.056,-1.104 -1.056,-3.072 v -6.15 h -2.28 v -1.536 h 2.28 v -3.552 h 1.944 v 3.552 h 3.312 v 1.536 h -3.312 v 6 q 0,2.76 2.544,2.76 z" style="font-variant-ligatures:none;fill:#332f4a" id="path650"></path><path d="m 900.48,442.02 q -1.656,0 -2.928,-0.744 -1.248,-0.744 -1.944,-2.112 -0.672,-1.392 -0.672,-3.216 0,-1.824 0.672,-3.192 0.69599,-1.392 1.944,-2.136 1.272,-0.744 2.928,-0.744 1.656,0 2.928,0.744 1.272,0.744 1.944,2.136 0.69601,1.368 0.69601,3.192 0,1.824 -0.69601,3.216 -0.67199,1.368 -1.944,2.112 -1.27201,0.744 -2.928,0.744 z m 0,-1.608 q 1.728,0 2.64,-1.128 0.936,-1.152 0.936,-3.336 0,-2.136 -0.936,-3.288 -0.93601,-1.176 -2.64,-1.176 -1.70399,0 -2.64,1.176 -0.936,1.152 -0.936,3.288 0,2.16 0.912,3.312 0.936,1.152 2.664,1.152 z" style="font-variant-ligatures:none;fill:#332f4a" id="path652"></path><path d="m 916.66,442.02 q -2.952,0 -4.68,-1.512 l 0.648,-1.44 q 0.936,0.744 1.896,1.08 0.98399,0.312 2.208,0.312 1.296,0 1.968,-0.432 0.696,-0.456 0.696,-1.296 0,-0.696 -0.456,-1.104 -0.45599,-0.408 -1.512,-0.648 l -1.968,-0.456 q -1.488,-0.336 -2.28,-1.152 -0.792,-0.816 -0.792,-2.016 0,-1.56 1.224,-2.52 1.224,-0.96 3.264,-0.96 1.224,0 2.328,0.408 1.104,0.384 1.848,1.128 l -0.648,1.416 q -1.608,-1.368 -3.528,-1.368 -1.224,0 -1.92,0.48 -0.672,0.456 -0.672,1.296 0,0.696 0.408,1.128 0.432,0.408 1.368,0.624 l 1.992,0.48 q 1.632,0.384 2.424,1.176 0.792,0.768 0.792,2.016 0,1.536 -1.248,2.448 -1.224,0.912 -3.36,0.912 z" style="font-variant-ligatures:none;fill:#332f4a" id="path654"></path><path d="m 130.55,321.83 h -27.814 v 82.152 h 27.814 c 22.65,0 41.076,-18.426 41.076,-41.076 0,-22.65 -18.426,-41.076 -41.076,-41.076 z m 0,67.951 H 116.936 V 336.03 h 13.614 c 14.905,0 26.875,12.088 26.875,26.875 0,14.787 -11.971,26.875 -26.875,26.875 z" style="font-variant-ligatures:normal;fill:#2e7b7b" id="path657"></path><path d="M 251.41,403.98 218.9,321.83 h -15.96 l -32.51,82.15 h 14.67 l 4.6944,-11.736 h 42.367 l 4.577,11.736 z m -24.88,-25.937 h -31.1 l 15.49,-39.19 z" style="font-variant-ligatures:normal;fill:#438371" id="path659"></path><path d="m 310.06,336.03 v -14.2 h -69.712 v 14.201 h 27.697 v 67.95 h 14.201 V 336.03 Z" style="font-variant-ligatures:normal;fill:#588b67" id="path661"></path><path d="M 380.23,403.98 347.721,321.828 H 331.76 l -32.509,82.152 h 14.67 l 4.6944,-11.736 h 42.367 l 4.577,11.736 z m -24.88,-25.937 h -31.1 l 15.492,-39.198 z" style="font-variant-ligatures:normal;fill:#6d935e" id="path663"></path><path d="m 382.28,403.98 h -2.3472 v -82.152 h 2.3472 z m 17.017,-82.152 h 51.873 l -25.937,41.78 z M 470.3,403.98 h -2.3472 V 321.828 H 470.3 Z m -16.313,0 h -57.506 v -59.267 l 28.753,46.357 28.753,-46.357 z" style="font-variant-ligatures:normal;fill:#829b54" id="path665"></path><path d="m 470.02,403.98 h 2.3472 V 321.828 H 470.02 Z m 16.43,-14.201 h 55.511 v 14.2 h 2.3472 v -82.152 h -2.3472 v 14.201 H 486.45 v 19.716 h 37.907 v 14.318 H 486.45 Z" style="font-variant-ligatures:normal;fill:#97a44a" id="path667"></path><path d="m 575.04,362.9 -28.636,-41.076 h -2.3472 v 82.152 h 2.3472 z m -11.971,-41.076 20.303,29.105 20.303,-29.105 z m 28.636,41.076 28.636,41.076 h 2.3472 v -82.152 h -2.3472 z m -28.636,41.076 h 40.607 l -20.303,-29.105 z" style="font-variant-ligatures:normal;fill:#abac40" id="path669"></path><path d="m 690.6,403.98 v -14.2 h -55.63 v -67.95 h -14.201 v 82.152 z" style="font-variant-ligatures:normal;fill:#c0b436" id="path671"></path><path d="M 771.97,403.98 739.461,321.828 H 723.5 l -32.509,82.152 h 14.67 l 4.6944,-11.736 h 42.367 l 4.577,11.736 z m -24.88,-25.937 h -31.1 l 15.492,-39.198 z" style="font-variant-ligatures:normal;fill:#d5bc2d" id="path673"></path><path d="m 837.16,359.27 c 2.5819,-3.8729 4.1076,-8.4499 4.1076,-13.379 0,-13.262 -10.797,-24.059 -24.176,-24.059 h -38.846 v 82.152 h 46.592 c 13.262,0 24.059,-10.797 24.059,-24.059 0,-8.802 -4.6944,-16.548 -11.736,-20.655 z m -10.1,-13.38 c 0,5.5159 -4.4597,9.8582 -9.9756,9.8582 h -24.646 v -19.716 h 24.646 c 5.5159,0 9.9756,4.4597 9.9756,9.8582 z m -2.2298,43.893 h -32.39 v -19.716 h 32.391 c 5.5159,0 9.8582,4.3423 9.8582,9.8582 0,5.3986 -4.3423,9.8582 -9.8582,9.8582 z" style="font-variant-ligatures:normal;fill:#eac423" id="path675"></path><path d="m 898.15,355.75 h -19.599 c -4.9291,0 -8.9194,-3.9902 -8.9194,-8.802 v -1.9951 c 0,-4.9291 3.9902,-8.9194 8.9194,-8.9194 h 19.599 c 4.9291,0 8.9194,3.9902 8.9194,8.9194 h 14.201 c 0,-12.792 -10.328,-23.12 -23.12,-23.12 h -19.599 c -12.792,0 -23.12,10.328 -23.12,23.12 v 1.9951 c 0,12.675 10.328,23.12 23.12,23.12 h 19.599 c 4.9291,0 8.9194,3.9902 8.9194,8.802 v 1.9951 c 0,4.9291 -3.9902,8.9194 -8.9194,8.9194 h -19.599 c -4.9291,0 -8.9194,-3.9902 -8.9194,-8.9194 h -14.201 c 0,12.792 10.328,23.12 23.12,23.12 h 19.599 c 12.792,0 23.12,-10.328 23.12,-23.12 V 378.87 c 0,-12.675 -10.328,-23.12 -23.12,-23.12 z" style="font-variant-ligatures:normal;fill:#ffcc19" id="path677"></path></g></g></svg>